<?xml version="1.0" encoding="UTF-8"?>
<svg width="20px" height="20px" viewBox="0 0 20 20" version="1.1" xmlns="http://www.w3.org/2000/svg" xmlns:xlink="http://www.w3.org/1999/xlink">
    <!-- Generator: Sketch 48.1 (47250) - http://www.bohemiancoding.com/sketch -->
    <title>adress</title>
    <desc>Created with Sketch.</desc>
    <defs></defs>
    <g id="sidebar" stroke="none" stroke-width="1" fill="none" fill-rule="evenodd" transform="translate(-397.000000, -106.000000)">
        <g id="balance">
            <g transform="translate(16.000000, 91.000000)">
                <g id="user" transform="translate(381.000000, 15.000000)">
                    <g id="adress">
                        <rect id="Rectangle-2" fill="#571430" x="0" y="0" width="20" height="20"></rect>
                        <rect id="Rectangle-3" fill="#80B8EC" x="0" y="0" width="3" height="3"></rect>
                        <rect id="Rectangle-3-Copy-4" fill="#80B8EC" x="3" y="3" width="14" height="3"></rect>
                        <rect id="Rectangle-3-Copy-10" fill="#905DCD" x="8" y="6" width="4" height="4"></rect>
                        <rect id="Rectangle-3-Copy-5" fill="#80B8EC" x="3" y="10" width="14" height="3"></rect>
                        <rect id="Rectangle-4" fill="#80B8EC" x="8" y="13" width="4" height="7"></rect>
                        <rect id="Rectangle-3-Copy" fill="#80B8EC" x="0" y="17" width="3" height="3"></rect>
                        <rect id="Rectangle-3-Copy-3" fill="#80B8EC" x="17" y="0" width="3" height="3"></rect>
                        <rect id="Rectangle-3-Copy-2" fill="#80B8EC" x="17" y="17" width="3" height="3"></rect>
                        <rect id="Rectangle-3-Copy-6" fill="#8F5DCC" x="12" y="13" width="3" height="3"></rect>
                        <rect id="Rectangle-3-Copy-7" fill="#8A5BC3" x="5" y="13" width="3" height="3"></rect>
                        <rect id="Rectangle-3-Copy-8" fill="#8A5BC3" x="3" y="0" width="3" height="3"></rect>
                        <rect id="Rectangle-3-Copy-9" fill="#8A5BC3" x="14" y="0" width="3" height="3"></rect>
                    </g>
                </g>
            </g>
        </g>
    </g>
</svg>