<?xml version="1.0" encoding="UTF-8"?>
<svg width="24px" height="32px" viewBox="0 0 24 32" version="1.1" xmlns="http://www.w3.org/2000/svg" xmlns:xlink="http://www.w3.org/1999/xlink">
    <!-- Generator: Sketch 49.3 (51167) - http://www.bohemiancoding.com/sketch -->
    <title>Shape</title>
    <desc>Created with Sketch.</desc>
    <defs></defs>
    <g id="Desktop" stroke="none" stroke-width="1" fill="none" fill-rule="evenodd">
        <g id="1.land_detail.other_owner" transform="translate(-629.000000, -926.000000)" fill="#FFFFFF" fill-rule="nonzero">
            <g id="tags" transform="translate(232.000000, 884.000000)">
                <g id="Group-7" transform="translate(385.000000, 34.000000)">
                    <g id="Group-2">
                        <g id="Group">
                            <path d="M35.3666117,38.6666276 L33.5325288,38.6666276 L33.5325288,11.333306 C33.5325288,10.9653067 33.2487866,10.6666198 32.8992,10.6666198 L30.9992727,10.6666198 L30.9992727,8.6666237 C30.9993321,8.29868692 30.7155898,8 30.3660032,8 L17.6998412,8 C17.3502546,8 17.0665123,8.29868692 17.0665123,8.6666862 L17.0665123,10.6666823 L15.166585,10.6666823 C14.8169984,10.6666823 14.5332561,10.9653692 14.5332561,11.3333685 L14.5332561,38.6666276 L12.6333289,38.6666276 C12.2837423,38.6666276 12,38.9653145 12,39.3333138 C12,39.7013131 12.2837423,40 12.6333289,40 L20.233038,40 C20.5826246,40 20.8663668,39.7013131 20.8663668,39.3333138 L20.8663668,35.9999453 L27.1994775,35.9999453 L27.1994775,39.3332513 C27.1994775,39.7012506 27.4832198,39.9999375 27.8328064,39.9999375 L35.3666711,39.9999375 C35.7162577,39.9999375 36,39.7012506 36,39.3332513 C35.9999406,38.965252 35.7161984,38.6666276 35.3666117,38.6666276 Z M20.8663668,32.6666393 C20.8663668,33.0346386 20.5826246,33.3333255 20.233038,33.3333255 L17.6997818,33.3333255 C17.3501952,33.3333255 17.0664529,33.0346386 17.0664529,32.6666393 L17.0664529,29.999957 C17.0664529,29.6319578 17.3501952,29.3332708 17.6997818,29.3332708 L20.233038,29.3332708 C20.5826246,29.3332708 20.8663668,29.6319578 20.8663668,29.999957 L20.8663668,32.6666393 Z M20.8663668,27.3332747 C20.8663668,27.701274 20.5826246,27.9999609 20.233038,27.9999609 L17.6997818,27.9999609 C17.3501952,27.9999609 17.0664529,27.701274 17.0664529,27.3332747 L17.0664529,24.6665924 C17.0664529,24.2985932 17.3501952,23.9999063 17.6997818,23.9999063 L20.233038,23.9999063 C20.5826246,23.9999063 20.8663668,24.2985932 20.8663668,24.6665924 L20.8663668,27.3332747 Z M20.8663668,21.9999727 C20.8663668,22.3679719 20.5826246,22.6666589 20.233038,22.6666589 L17.6997818,22.6666589 C17.3501952,22.6666589 17.0664529,22.3679719 17.0664529,21.9999727 L17.0664529,19.3332904 C17.0664529,18.9652911 17.3501952,18.6666042 17.6997818,18.6666042 L20.233038,18.6666042 C20.5826246,18.6666042 20.8663668,18.9652911 20.8663668,19.3332904 L20.8663668,21.9999727 Z M20.8663668,16.6666706 C20.8663668,17.0346699 20.5826246,17.3333568 20.233038,17.3333568 L17.6997818,17.3333568 C17.3501952,17.3333568 17.0664529,17.0346699 17.0664529,16.6666706 L17.0664529,13.9999883 C17.0664529,13.631989 17.3501952,13.3333021 17.6997818,13.3333021 L20.233038,13.3333021 C20.5826246,13.3333021 20.8663668,13.631989 20.8663668,13.9999883 L20.8663668,16.6666706 Z M25.9328791,32.6666393 C25.9328791,33.0346386 25.6491369,33.3333255 25.2995503,33.3333255 L22.7662941,33.3333255 C22.4167075,33.3333255 22.1329652,33.0346386 22.1329652,32.6666393 L22.1329652,29.999957 C22.1329652,29.6319578 22.4167075,29.3332708 22.7662941,29.3332708 L25.2995503,29.3332708 C25.6491369,29.3332708 25.9328791,29.6319578 25.9328791,29.999957 L25.9328791,32.6666393 Z M25.9328791,27.3332747 C25.9328791,27.701274 25.6491369,27.9999609 25.2995503,27.9999609 L22.7662941,27.9999609 C22.4167075,27.9999609 22.1329652,27.701274 22.1329652,27.3332747 L22.1329652,24.6665924 C22.1329652,24.2985932 22.4167075,23.9999063 22.7662941,23.9999063 L25.2995503,23.9999063 C25.6491369,23.9999063 25.9328791,24.2985932 25.9328791,24.6665924 L25.9328791,27.3332747 Z M25.9328791,21.9999727 C25.9328791,22.3679719 25.6491369,22.6666589 25.2995503,22.6666589 L22.7662941,22.6666589 C22.4167075,22.6666589 22.1329652,22.3679719 22.1329652,21.9999727 L22.1329652,19.3332904 C22.1329652,18.9652911 22.4167075,18.6666042 22.7662941,18.6666042 L25.2995503,18.6666042 C25.6491369,18.6666042 25.9328791,18.9652911 25.9328791,19.3332904 L25.9328791,21.9999727 Z M25.9328791,16.6666706 C25.9328791,17.0346699 25.6491369,17.3333568 25.2995503,17.3333568 L22.7662941,17.3333568 C22.4167075,17.3333568 22.1329652,17.0346699 22.1329652,16.6666706 L22.1329652,13.9999883 C22.1329652,13.631989 22.4167075,13.3333021 22.7662941,13.3333021 L25.2995503,13.3333021 C25.6491369,13.3333021 25.9328791,13.631989 25.9328791,13.9999883 L25.9328791,16.6666706 Z M30.9993321,32.6666393 C30.9993321,33.0346386 30.7155898,33.3333255 30.3660032,33.3333255 L27.832747,33.3333255 C27.4831604,33.3333255 27.1994181,33.0346386 27.1994181,32.6666393 L27.1994181,29.999957 C27.1994181,29.6319578 27.4831604,29.3332708 27.832747,29.3332708 L30.3660032,29.3332708 C30.7155898,29.3332708 30.9993321,29.6319578 30.9993321,29.999957 L30.9993321,32.6666393 Z M30.9993321,27.3332747 C30.9993321,27.701274 30.7155898,27.9999609 30.3660032,27.9999609 L27.832747,27.9999609 C27.4831604,27.9999609 27.1994181,27.701274 27.1994181,27.3332747 L27.1994181,24.6665924 C27.1994181,24.2985932 27.4831604,23.9999063 27.832747,23.9999063 L30.3660032,23.9999063 C30.7155898,23.9999063 30.9993321,24.2985932 30.9993321,24.6665924 L30.9993321,27.3332747 Z M30.9993321,21.9999727 C30.9993321,22.3679719 30.7155898,22.6666589 30.3660032,22.6666589 L27.832747,22.6666589 C27.4831604,22.6666589 27.1994181,22.3679719 27.1994181,21.9999727 L27.1994181,19.3332904 C27.1994181,18.9652911 27.4831604,18.6666042 27.832747,18.6666042 L30.3660032,18.6666042 C30.7155898,18.6666042 30.9993321,18.9652911 30.9993321,19.3332904 L30.9993321,21.9999727 Z M30.9993321,16.6666706 C30.9993321,17.0346699 30.7155898,17.3333568 30.3660032,17.3333568 L27.832747,17.3333568 C27.4831604,17.3333568 27.1994181,17.0346699 27.1994181,16.6666706 L27.1994181,13.9999883 C27.1994181,13.631989 27.4831604,13.3333021 27.832747,13.3333021 L30.3660032,13.3333021 C30.7155898,13.3333021 30.9993321,13.631989 30.9993321,13.9999883 L30.9993321,16.6666706 Z" id="Shape"></path>
                        </g>
                    </g>
                </g>
            </g>
        </g>
    </g>
</svg>