<?xml version="1.0" encoding="utf-8"?><!DOCTYPE svg PUBLIC "-//W3C//DTD SVG 1.1//EN" "http://www.w3.org/Graphics/SVG/1.1/DTD/svg11.dtd"><svg version="1.1" xmlns="http://www.w3.org/2000/svg" xmlns:xlink="http://www.w3.org/1999/xlink" width="28" height="28" viewBox="0 0 28 28" data-code="61676" data-tags="exchange"><g fill="#444" transform="scale(0.02734375 0.02734375)"><path d="M1024 676.571v109.714c0 9.714-8.571 18.286-18.286 18.286h-786.286v109.714c0 9.714-8 18.286-18.286 18.286-5.143 0-9.714-2.286-13.714-5.714l-182.286-182.857c-3.429-3.429-5.143-8-5.143-12.571 0-5.143 1.714-9.714 5.143-13.143l182.857-182.857c3.429-3.429 8.571-5.143 13.143-5.143 9.714 0 18.286 8 18.286 18.286v109.714h786.286c9.714 0 18.286 8 18.286 18.286zM1024 365.714c0 4.571-1.714 9.714-5.143 13.143l-182.857 182.857c-3.429 3.429-8.571 5.143-13.143 5.143-9.714 0-18.286-8.571-18.286-18.286v-109.714h-786.286c-9.714 0-18.286-8.571-18.286-18.286v-109.714c0-9.714 8.571-18.286 18.286-18.286h786.286v-109.714c0-10.286 8-18.286 18.286-18.286 5.143 0 9.714 2.286 13.714 5.714l182.286 182.286c3.429 3.429 5.143 8.571 5.143 13.143z" /></g></svg>