<?xml version="1.0" encoding="UTF-8"?>
<svg width="12px" height="10px" viewBox="0 0 12 10" version="1.1" xmlns="http://www.w3.org/2000/svg" xmlns:xlink="http://www.w3.org/1999/xlink">
    <!-- Generator: Sketch 47.1 (45422) - http://www.bohemiancoding.com/sketch -->
    <title>icon</title>
    <desc>Created with Sketch.</desc>
    <defs></defs>
    <g id="UI" stroke="none" stroke-width="1" fill="none" fill-rule="evenodd">
        <g id="101_sidebar" transform="translate(-571.000000, -37.000000)" fill-rule="nonzero" fill="#7B7B7B">
            <g id="sidebar">
                <g id="header" transform="translate(0.000000, 24.000000)">
                    <path d="M573.007514,17.9988835 L576.927589,21.888779 C577.02606,21.9847982 577.023715,22.1433416 576.9229,22.2415939 L576.221882,22.9248935 C576.121066,23.0231458 575.956948,23.0253788 575.858478,22.9293595 L571.070922,18.1797569 C571.021687,18.1306308 570.998242,18.0658737 571.000586,17.9988835 C570.995897,17.9341263 571.019342,17.8671362 571.070922,17.8180101 L575.858478,13.0706405 C575.956948,12.9746212 576.121066,12.9768542 576.221882,13.0751065 L576.9229,13.7584061 C577.023715,13.8566584 577.02606,14.0152018 576.927589,14.111221 L573.007514,17.9988835 Z M579.007514,17.9988835 L582.927589,21.888779 C583.02606,21.9847982 583.023715,22.1433416 582.9229,22.2415939 L582.221882,22.9248935 C582.121066,23.0231458 581.956948,23.0253788 581.858478,22.9293595 L577.070922,18.1797569 C577.021687,18.1306308 576.998242,18.0658737 577.000586,17.9988835 C576.995897,17.9341263 577.019342,17.8671362 577.070922,17.8180101 L581.858478,13.0706405 C581.956948,12.9746212 582.121066,12.9768542 582.221882,13.0751065 L582.9229,13.7584061 C583.023715,13.8566584 583.02606,14.0152018 582.927589,14.111221 L579.007514,17.9988835 Z" id="icon" transform="translate(577.000000, 18.000000) rotate(-360.000000) translate(-577.000000, -18.000000) "></path>
                </g>
            </g>
        </g>
    </g>
</svg>