<?xml version="1.0" encoding="UTF-8"?>
<svg width="32px" height="21px" viewBox="0 0 32 21" version="1.1" xmlns="http://www.w3.org/2000/svg" xmlns:xlink="http://www.w3.org/1999/xlink">
    <!-- Generator: Sketch 49.3 (51167) - http://www.bohemiancoding.com/sketch -->
    <title>Shape</title>
    <desc>Created with Sketch.</desc>
    <defs></defs>
    <g id="Desktop" stroke="none" stroke-width="1" fill="none" fill-rule="evenodd">
        <g id="1.land_detail.other_owner" transform="translate(-240.000000, -936.000000)" fill="#FFFFFF" fill-rule="nonzero">
            <g id="tags" transform="translate(232.000000, 884.000000)">
                <g id="Group-2" transform="translate(0.000000, 38.000000)">
                    <g id="Group">
                        <path d="M39.0625,23.35425 L32.923625,23.35425 L32.0179375,19.3425 L34.9275625,19.3425 C35.4453125,19.3425 35.8650625,18.92275 35.8650625,18.405 L35.8650625,14.9375 C35.8650625,14.41975 35.4453125,14 34.9275625,14 L13.0724375,14 C12.5546875,14 12.1349375,14.41975 12.1349375,14.9375 L12.1349375,18.405 C12.1349375,18.92275 12.5546875,19.3425 13.0724375,19.3425 L15.9820625,19.3425 L15.076375,23.35425 L8.9375,23.35425 C8.41975,23.35425 8,23.774 8,24.29175 L8,27.9805 C8,28.49825 8.41975,28.918 8.9375,28.918 L13.820375,28.918 L12.77275,33.558625 C12.65875,34.063625 12.97575,34.5655 13.4808125,34.6795625 C13.5503125,34.69525 13.61975,34.70275 13.688125,34.70275 C14.116625,34.70275 14.5034375,34.4070625 14.60175,33.9715 L15.7425625,28.9180625 L32.2575625,28.9180625 L33.398375,33.9715 C33.4966875,34.407125 33.8835,34.70275 34.312,34.70275 C34.380375,34.70275 34.4498125,34.69525 34.51925,34.6795625 C35.0243125,34.5655625 35.3413125,34.0636875 35.2273125,33.558625 L34.1796875,28.918 L39.0625,28.918 C39.58025,28.918 40,28.49825 40,27.9805 L40,24.29175 C40,23.7739375 39.5803125,23.35425 39.0625,23.35425 Z M16.9985,23.3541875 L17.9041875,19.3424375 L30.0958125,19.3424375 L31.0015,23.3541875 L16.9985,23.3541875 Z" id="Shape"></path>
                    </g>
                </g>
            </g>
        </g>
    </g>
</svg>