<?xml version="1.0" encoding="UTF-8"?>
<svg width="219px" height="16px" viewBox="0 0 219 16" version="1.1" xmlns="http://www.w3.org/2000/svg" xmlns:xlink="http://www.w3.org/1999/xlink">
    <!-- Generator: Sketch 48.1 (47250) - http://www.bohemiancoding.com/sketch -->
    <title>social</title>
    <desc>Created with Sketch.</desc>
    <defs></defs>
    <g id="sidebar" stroke="none" stroke-width="1" fill="none" fill-rule="evenodd" transform="translate(-163.000000, -1095.000000)">
        <g id="footer">
            <g transform="translate(0.000000, 1063.000000)">
                <g id="social" transform="translate(162.000000, 32.000000)">
                    <g id="twitter" fill="#000000" fill-rule="nonzero">
                        <path d="M16.89,3.012 C17.698,2.516 18.233,1.839 18.495,0.978 C17.709,1.395 16.926,1.681 16.144,1.839 C15.441,1.083 14.551,0.699 13.484,0.699 C12.441,0.699 11.56,1.065 10.841,1.777 C10.126,2.494 9.765,3.365 9.765,4.382 C9.765,4.691 9.804,4.967 9.882,5.201 C6.806,5.096 4.26,3.82 2.254,1.364 C1.914,1.965 1.744,2.577 1.744,3.21 C1.744,4.511 2.293,5.542 3.389,6.299 C2.764,6.246 2.213,6.088 1.744,5.829 C1.744,6.758 2.017,7.534 2.564,8.217 C3.113,8.893 3.818,9.324 4.679,9.508 C4.367,9.588 4.038,9.626 3.7,9.626 C3.388,9.626 3.167,9.6 3.036,9.543 C3.266,10.3 3.7,10.914 4.327,11.384 C4.952,11.856 5.671,12.105 6.479,12.127 C5.147,13.172 3.624,13.689 1.901,13.689 C1.479,13.689 1.18,13.683 0.999,13.651 C2.696,14.753 4.585,15.3 6.675,15.3 C8.814,15.3 10.704,14.758 12.349,13.674 C13.994,12.596 15.208,11.266 15.988,9.7 C16.772,8.136 17.16,6.508 17.16,4.808 L17.16,4.34 C17.918,3.77 18.531,3.128 19,2.419 C18.32,2.712 17.617,2.911 16.89,3.012 Z" id="Shape"></path>
                    </g>
                    <g id="rocketchat" transform="translate(43.000000, 0.000000)" fill="#000000" fill-rule="nonzero">
                        <path d="M16.2444444,5.71294118 C15.7471653,4.99184189 15.1036925,4.38265803 14.3555556,3.92470588 C12.6461998,2.90004942 10.6834638,2.3719444 8.68888889,2.4 C7.99255435,2.40288111 7.29763076,2.46268957 6.61111111,2.57882353 C6.16111477,2.17298616 5.65938289,1.82805236 5.11888889,1.55294118 C3.51183968,0.745609898 1.61883122,0.731687697 6.40660364e-16,1.51529412 C6.40660364e-16,1.51529412 2.16277778,3.28470588 1.80388889,4.83764706 C0.880420445,5.69279486 0.345235911,6.88515009 0.321111111,8.14117647 C0.347392141,9.39672167 0.882217658,10.588277 1.80388889,11.4447059 C2.16277778,13.0164706 0,14.7764706 0,14.7764706 C1.61226011,15.5748317 3.50662878,15.5748317 5.11888889,14.7764706 C5.65883254,14.4890842 6.16020473,14.1349109 6.61111111,13.7223529 C7.30385063,13.8395173 8.0051345,13.8993294 8.70777778,13.9011765 C10.7023527,13.9292321 12.6650887,13.401127 14.3744444,12.3764706 C15.1227532,11.9187412 15.7662686,11.309517 16.2633333,10.5882353 C16.7435495,9.86880806 16.9998269,9.02405437 17,8.16 C16.9991292,7.2874088 16.7359652,6.43508554 16.2444444,5.71294118 Z M5.355,9.25176471 C4.83339774,9.25176471 4.41055556,8.83038565 4.41055556,8.31058824 C4.41055556,7.79079082 4.83339774,7.36941176 5.355,7.36941176 C5.87660226,7.36941176 6.29944444,7.79079082 6.29944444,8.31058824 C6.29944444,8.83038565 5.87660226,9.25176471 5.355,9.25176471 Z M8.66055556,9.25176471 C8.13895329,9.25176471 7.71611111,8.83038565 7.71611111,8.31058824 C7.71611111,7.79079082 8.13895329,7.36941176 8.66055556,7.36941176 C9.18215782,7.36941176 9.605,7.79079082 9.605,8.31058824 C9.605,8.83038565 9.18215782,9.25176471 8.66055556,9.25176471 Z M11.9661111,9.25176471 C11.4445088,9.25176471 11.0216667,8.83038565 11.0216667,8.31058824 C11.0216667,7.79079082 11.4445088,7.36941176 11.9661111,7.36941176 C12.4877134,7.36941176 12.9105556,7.79079082 12.9105556,8.31058824 C12.9105556,8.83038565 12.4877134,9.25176471 11.9661111,9.25176471 Z" id="Shape"></path>
                    </g>
                    <g id="github" transform="translate(84.000000, 0.000000)" fill="#000000" fill-rule="nonzero">
                        <path d="M7.5,0 C3.35825893,0 0,3.44214617 0,7.69125462 C0,11.0898717 2.14955357,13.9694881 5.12946429,14.9873991 C5.50446429,15.0577153 5.64174107,14.8199795 5.64174107,14.6157276 C5.64174107,14.4315661 5.63504464,13.9493978 5.63169643,13.3065067 C3.54575893,13.7719331 3.10379464,12.2752022 3.10379464,12.2752022 C2.76227679,11.3878785 2.27008929,11.1501427 2.27008929,11.1501427 C1.59040179,10.6713228 2.3203125,10.681368 2.3203125,10.681368 C3.07366071,10.7349422 3.46875,11.4749367 3.46875,11.4749367 C4.13839286,12.650222 5.22321429,12.3120345 5.65178571,12.1144794 C5.71875,11.6189175 5.91294643,11.2773816 6.12723214,11.0865233 C4.46316964,10.8923166 2.71205357,10.2326835 2.71205357,7.28609928 C2.71205357,6.44565309 3.00334821,5.75923289 3.48214286,5.22349029 C3.40513393,5.0292836 3.14732143,4.24576006 3.55580357,3.18766843 C3.55580357,3.18766843 4.18526786,2.98006818 5.61830357,3.97454037 C6.21763393,3.80377242 6.85714286,3.72006264 7.49665179,3.71671425 C8.1328125,3.72006264 8.77566964,3.80377242 9.375,3.97454037 C10.8080357,2.98006818 11.4341518,3.18766843 11.4341518,3.18766843 C11.8426339,4.24576006 11.5848214,5.0292836 11.5078125,5.22349029 C11.9866071,5.76258128 12.2779018,6.44900148 12.2779018,7.28609928 C12.2779018,10.2393803 10.5234375,10.8889682 8.85267857,11.0798265 C9.12053571,11.3175623 9.36160714,11.7863371 9.36160714,12.5028928 C9.36160714,13.5308489 9.3515625,14.3612499 9.3515625,14.6123793 C9.3515625,14.8166311 9.48549107,15.0577153 9.8671875,14.9807023 C12.8537946,13.9661397 15,11.0865233 15,7.69125462 C15,3.44214617 11.6417411,0 7.5,0 Z" id="Shape"></path>
                    </g>
                    <g id="reddit" transform="translate(123.000000, 1.000000)" fill="#000000" fill-rule="nonzero">
                        <path d="M17,6.81770833 C17,5.8078125 16.1594655,4.9875 15.1258352,4.9875 C14.6336303,4.9875 14.1906459,5.16979167 13.8536748,5.47239583 C12.6269488,4.64114583 10.9723831,4.09427083 9.1247216,3.9921875 L9.95389755,1.3234375 L12.4944321,1.815625 C12.5815145,2.64322917 13.2971047,3.28854167 14.1717149,3.28854167 C14.1755011,3.28854167 14.1755011,3.28854167 14.1792873,3.28854167 C14.1830735,3.28854167 14.1830735,3.28854167 14.1868597,3.28854167 C15.1182628,3.28854167 15.8717149,2.55208333 15.8717149,1.64427083 C15.8717149,0.736458333 15.1144766,0 14.1830735,0 C14.1792873,0 14.1792873,0 14.1755011,0 C14.1755011,0 14.1717149,0 14.1717149,0 C13.52049,0 12.9601336,0.357291667 12.6761693,0.8859375 L9.27995546,0.2296875 L8.11380846,3.98489583 L8.01915367,3.98854167 C6.11469933,4.06875 4.40334076,4.62291667 3.14632517,5.47239583 C2.81314031,5.16979167 2.36636971,4.9875 1.87416481,4.9875 C0.840534521,4.9875 0,5.8078125 0,6.81770833 C0,7.53229167 0.416481069,8.1484375 1.02605791,8.45104167 C0.995768374,8.6296875 0.980623608,8.80833333 0.980623608,8.990625 C0.9844098,11.7541667 4.35033408,14 8.5,14 C12.6496659,14 16.0155902,11.7541667 16.0155902,8.98697917 C16.0155902,8.8046875 16.0004454,8.62604167 15.9739421,8.44739583 C16.5835189,8.14479167 17,7.52864583 17,6.81770833 Z M1.2986637,7.55052083 C1.04877506,7.38645833 0.88596882,7.109375 0.88596882,6.7921875 C0.88596882,6.2890625 1.30623608,5.87708333 1.82115813,5.87708333 C2.03318486,5.87708333 2.23006682,5.94635417 2.38908686,6.06302083 C1.877951,6.496875 1.49933185,7 1.2986637,7.55052083 Z M13.5469933,1.64427083 C13.5469933,1.30885417 13.8271715,1.03177083 14.1717149,1.03177083 C14.5162584,1.03177083 14.7964365,1.30520833 14.7964365,1.64427083 C14.7964365,1.9796875 14.5162584,2.25677083 14.1717149,2.25677083 C13.8271715,2.25677083 13.5469933,1.98333333 13.5469933,1.64427083 Z M4.80846325,8.18125 C4.80846325,7.53958333 5.34610245,7.021875 6.01247216,7.021875 C6.67884187,7.021875 7.21648107,7.53958333 7.21648107,8.18125 C7.21648107,8.82291667 6.67884187,9.340625 6.01247216,9.340625 C5.34610245,9.340625 4.80846325,8.82291667 4.80846325,8.18125 Z M8.5,12.25 C6.69777283,12.2427083 5.62249443,11.2109375 5.57706013,11.1671875 L6.05412027,10.7151042 C6.06169265,10.7223958 6.95144766,11.5973958 8.5,11.6046875 C10.0258352,11.5973958 10.930735,10.7223958 10.9420935,10.7151042 L11.4191537,11.1671875 C11.3737194,11.2109375 10.3022272,12.2427083 8.5,12.25 Z M11.010245,9.340625 C10.3438753,9.340625 9.80623608,8.82291667 9.80623608,8.18125 C9.80623608,7.53958333 10.3438753,7.021875 11.010245,7.021875 C11.6766147,7.021875 12.2142539,7.53958333 12.2142539,8.18125 C12.2142539,8.82291667 11.6728285,9.340625 11.010245,9.340625 Z M15.7089087,7.56510417 C15.5044543,7.00729167 15.1182628,6.49322917 14.5995546,6.05572917 C14.7585746,5.93541667 14.9592428,5.86614583 15.1750557,5.86614583 C15.7013363,5.86614583 16.1253898,6.28177083 16.1253898,6.79583333 C16.1291759,7.11666667 15.9625835,7.39739583 15.7089087,7.56510417 Z" id="Shape"></path>
                    </g>
                    <g id="facebook" transform="translate(164.000000, 0.000000)" fill="#010101">
                        <path d="M0.0325,13.7229795 C0.0325,14.4105822 0.589486301,14.9675 1.27702055,14.9675 L13.7229452,14.9675 C14.4105479,14.9675 14.9674658,14.4105822 14.9674658,13.7229795 L14.9674658,1.27705479 C14.9674658,0.589486301 14.4105479,0.0325342466 13.7229452,0.0325342466 L1.27705479,0.0325342466 C0.589486301,0.0325342466 0.0325342466,0.589520548 0.0325342466,1.27705479 L0.0325342466,13.7229795 L0.0325,13.7229795 Z M7.81116438,13.1006164 L7.81116438,8.12232877 L6.56657534,8.12232877 L6.56657534,6.25541096 L7.81116438,6.25541096 C7.81116438,3.0475 7.94791096,2.83284247 11.8560959,2.83284247 L11.8560959,4.69972603 C9.79619863,4.69972603 9.98917808,4.81486301 9.98917808,6.25544521 L11.8560959,6.25544521 L11.8560959,8.12236301 L9.98917808,8.12236301 L9.98917808,13.1006507 L7.81116438,13.1006507 L7.81116438,13.1006164 Z" id="Shape"></path>
                    </g>
                    <g id="forum" transform="translate(203.000000, 0.000000)" fill="#000000" fill-rule="nonzero">
                        <path d="M3.6125,14.3863636 C3.25833333,14.3863636 2.975,14.3181818 2.62083333,14.25 C2.40833333,14.1818182 2.19583333,14.0454545 2.05416667,13.9090909 L1.98333333,13.8409091 C1.9125,13.7727273 1.84166667,13.6363636 1.84166667,13.5681818 C1.84166667,13.4318182 1.9125,13.3636364 2.05416667,13.2954545 C2.62083333,13.0227273 3.11666667,12.5454545 3.4,12 C3.47083333,11.9318182 3.54166667,11.8636364 3.54166667,11.7954545 C1.55833333,10.6363636 0.354166667,8.79545455 0.354166667,6.81818182 C0.354166667,3.40909091 4.0375,0.545454545 8.5,0.545454545 C12.9625,0.545454545 16.6458333,3.40909091 16.6458333,6.81818182 C16.6458333,10.2272727 12.9625,13.0909091 8.5,13.0909091 C8.075,13.0909091 7.57916667,13.0909091 7.15416667,13.0227273 C6.09166667,13.9090909 4.81666667,14.3863636 3.6125,14.3863636 Z" id="Shape"></path>
                    </g>
                </g>
            </g>
        </g>
    </g>
</svg>